<svg width="462" height="458" viewBox="0 0 462 458" fill="none" xmlns="http://www.w3.org/2000/svg">
<path d="M319.287 100.792C319.287 155.543 288 198 232.783 198C177.565 198 146.255 155.543 146.255 100.792C146.255 46.041 149.89 1.62299 232.783 1.62299C315.675 1.62299 319.287 46.0182 319.287 100.792Z" fill="white"/>
<path d="M144.609 100.815C144.609 41.7662 150.919 0 232.783 0C314.646 0 320.956 41.7434 320.956 100.792C320.956 233.5 144.609 227 144.609 100.815ZM232.783 3.29192C153.822 3.29192 147.901 41.9034 147.901 100.815C147.901 216 317.641 222 317.641 100.815C317.641 41.8805 311.811 3.26908 232.783 3.26908V3.29192Z" fill="#202020"/>
<path d="M461.983 428.27C401.667 442.429 340.309 451.71 278.504 456.022C262.799 456.982 246.888 457.554 231 457.554C215.111 457.554 199.201 456.982 183.541 456.022C121.721 451.707 60.3482 442.427 0.0165291 428.27C0.0165291 428.27 -2.26948 350.864 46.9264 298.124C96.1223 245.385 180.546 240.676 231 240.676C281.453 240.676 365.877 245.362 415.096 298.124C464.314 350.887 461.983 428.27 461.983 428.27Z" fill="#6B8F71"/>
<path d="M278.503 266.394V456.022C262.798 456.982 246.887 457.554 230.999 457.554C215.111 457.554 199.2 456.982 183.541 456.022V266.394H278.503Z" fill="#202020"/>
<path d="M99.6203 441.803C99.2116 441.8 98.8183 441.647 98.5149 441.373C98.2115 441.099 98.0191 440.724 97.9743 440.317L84.8295 312.298C84.7847 311.865 84.9136 311.431 85.1878 311.093C85.4621 310.754 85.8594 310.538 86.2926 310.492C86.7262 310.459 87.1563 310.591 87.4958 310.863C87.8354 311.134 88.059 311.525 88.1215 311.955L101.266 439.974C101.305 440.412 101.171 440.849 100.894 441.19C100.617 441.531 100.217 441.751 99.7803 441.803H99.6203Z" fill="#202020"/>
<path d="M362.402 441.803H362.219C361.786 441.746 361.392 441.524 361.12 441.183C360.847 440.842 360.717 440.409 360.756 439.974L373.901 311.955C373.952 311.524 374.17 311.131 374.507 310.858C374.844 310.584 375.275 310.453 375.707 310.492C375.923 310.512 376.134 310.575 376.326 310.677C376.518 310.778 376.688 310.917 376.826 311.085C376.964 311.253 377.068 311.447 377.131 311.655C377.194 311.863 377.215 312.082 377.193 312.298L364.048 440.317C364.003 440.723 363.811 441.099 363.507 441.373C363.204 441.647 362.811 441.8 362.402 441.803Z" fill="#202020"/>
<path d="M287.396 134.854C291.626 108.45 335.404 101.958 333.3 133.071C332.546 143.77 329.117 154.651 321.596 162.31C314.075 169.968 301.982 173.557 292.197 169.168" fill="white"/>
<path d="M301.341 172.826C297.966 172.847 294.623 172.153 291.534 170.791C291.134 170.612 290.821 170.282 290.665 169.872C290.508 169.463 290.521 169.008 290.7 168.608C290.879 168.208 291.209 167.895 291.619 167.739C292.028 167.582 292.483 167.595 292.883 167.774C301.501 171.637 312.84 168.962 320.316 161.235C328.546 152.846 330.946 141.278 331.517 133.048C332.615 117.572 322.099 114.76 317.527 114.166C305.731 112.84 291.169 121.024 288.905 135.22C288.871 135.435 288.794 135.64 288.68 135.826C288.566 136.011 288.417 136.172 288.241 136.299C288.064 136.426 287.865 136.518 287.653 136.568C287.442 136.618 287.223 136.626 287.008 136.592C286.793 136.557 286.587 136.481 286.402 136.367C286.217 136.253 286.056 136.103 285.929 135.927C285.802 135.751 285.71 135.551 285.66 135.34C285.61 135.128 285.602 134.909 285.636 134.694C288.197 118.692 304.702 109.365 317.892 110.874C326.762 111.902 335.861 118.326 334.832 133.277C334.215 142.078 331.609 154.446 322.67 163.544C317.062 169.328 309.397 172.664 301.341 172.826Z" fill="#202020"/>
<path d="M178.169 134.854C173.94 108.45 130.162 101.958 132.265 133.071C132.996 143.77 136.448 154.651 143.947 162.31C151.445 169.968 163.561 173.557 173.345 169.168" fill="white"/>
<path d="M164.201 172.826C156.107 172.686 148.398 169.349 142.757 163.544C133.842 154.4 131.327 142.078 130.618 133.277C129.567 118.326 138.665 111.902 147.535 110.873C160.726 109.365 177.254 118.783 179.791 134.694C179.858 135.127 179.751 135.569 179.494 135.924C179.238 136.279 178.852 136.519 178.42 136.592C177.988 136.652 177.549 136.543 177.195 136.287C176.842 136.031 176.601 135.649 176.522 135.22C174.236 121.138 159.606 112.839 147.924 114.165C143.352 114.691 132.836 117.572 133.91 133.048C134.482 141.278 136.905 152.845 145.112 161.235C152.702 168.939 164.041 171.637 172.682 167.773C172.878 167.682 173.091 167.631 173.307 167.623C173.523 167.615 173.739 167.651 173.941 167.728C174.143 167.804 174.328 167.921 174.485 168.07C174.642 168.219 174.767 168.398 174.854 168.596C174.957 168.799 175.017 169.021 175.031 169.248C175.045 169.475 175.013 169.703 174.936 169.917C174.859 170.131 174.739 170.327 174.583 170.493C174.427 170.659 174.239 170.792 174.031 170.882C170.927 172.213 167.577 172.875 164.201 172.826Z" fill="#202020"/>
<path d="M183.999 266.828C183.999 266.828 195.863 292.661 230.474 292.661C258.09 292.661 279.098 266.828 279.098 266.828L274.526 165.351H188.616L183.999 266.828Z" fill="white"/>
<path d="M230.473 294.307C195.222 294.307 182.626 267.789 182.466 267.514C182.364 267.269 182.317 267.003 182.329 266.737L186.901 165.259C186.925 164.839 187.108 164.443 187.414 164.154C187.721 163.865 188.126 163.704 188.547 163.705H274.411C274.833 163.704 275.238 163.865 275.544 164.154C275.85 164.443 276.034 164.839 276.057 165.259L280.629 266.737C280.643 267.146 280.505 267.545 280.241 267.857C279.509 268.955 258.546 294.307 230.473 294.307ZM185.667 266.554C187.244 269.686 199.154 291.084 230.473 291.084C254.934 291.084 274.434 269.778 277.429 266.326L272.857 167.065H190.193L185.667 266.554Z" fill="#202020"/>
<path d="M188.617 208.785C194.583 218.364 204.459 225.908 214.563 231.509C231.572 240.927 257.015 251.512 277.636 248.357L274.252 205.448C259.137 207.334 243.852 207.433 228.714 205.745C215.386 204.579 201.647 203.276 189.44 198.132C187.336 197.195 186.079 204.625 188.617 208.785Z" fill="#202020"/>
<path d="M269.772 250.551C248.991 250.551 226.337 239.898 213.809 232.949C201.281 225.999 192.663 218.341 187.268 209.677C184.982 205.882 185.165 199.71 187.085 197.492C187.429 197.051 187.911 196.738 188.453 196.601C188.995 196.464 189.568 196.512 190.08 196.738C202.287 201.858 216.415 203.116 228.943 204.19C243.958 205.888 259.122 205.796 274.115 203.916C274.332 203.882 274.553 203.893 274.766 203.948C274.978 204.003 275.177 204.101 275.35 204.236C275.519 204.372 275.657 204.542 275.756 204.735C275.854 204.928 275.911 205.14 275.921 205.356L279.236 248.265C279.27 248.669 279.149 249.07 278.899 249.388C278.649 249.706 278.287 249.918 277.887 249.98C275.199 250.367 272.487 250.558 269.772 250.551ZM189.303 199.847C188.851 201.173 188.677 202.577 188.791 203.973C188.905 205.369 189.305 206.727 189.966 207.962C195.086 216.169 203.682 223.645 215.341 230.137C228.851 237.635 254.455 249.568 275.944 247.008L272.789 207.276C258.099 208.937 243.268 208.937 228.577 207.276C216.049 206.225 201.876 204.99 189.303 199.801V199.847Z" fill="#202020"/>
<path d="M296.815 85.407V155.04C296.821 171.079 290.457 186.464 279.122 197.811C267.788 209.159 252.41 215.54 236.372 215.552H229.331C221.381 215.555 213.509 213.992 206.163 210.953C198.818 207.914 192.143 203.457 186.519 197.838C180.896 192.219 176.435 185.547 173.39 178.204C170.345 170.861 168.776 162.99 168.773 155.04V88.9961L206.882 85.8185L211.225 55.5969L220.758 89.8877L247.802 86.2072C250.568 74.1368 247.688 48.0529 247.39 46.8641L266.868 83.441L296.815 85.407Z" fill="white"/>
<path d="M236.372 217.198H229.331C212.845 217.186 197.037 210.635 185.376 198.982C173.714 187.329 167.152 171.526 167.127 155.04V88.9963C167.126 88.5825 167.28 88.1834 167.56 87.8783C167.84 87.5733 168.224 87.3848 168.636 87.3503L205.419 84.287L209.602 55.3684C209.655 54.9915 209.836 54.6444 210.115 54.386C210.394 54.1276 210.754 53.9739 211.134 53.9511C211.519 53.9074 211.906 54.0068 212.222 54.2302C212.538 54.4536 212.761 54.7855 212.849 55.1627L221.993 87.9676L246.431 84.7214C248.717 72.6053 246.065 48.4645 245.813 47.2301C245.733 46.8373 245.794 46.4286 245.987 46.0769C246.179 45.7252 246.491 45.4533 246.865 45.3098C247.238 45.1804 247.645 45.1875 248.013 45.3298C248.382 45.4721 248.688 45.7404 248.877 46.087L267.92 81.8409L296.998 83.7612C297.417 83.7899 297.809 83.9753 298.097 84.2803C298.385 84.5853 298.548 84.9876 298.553 85.4072V155.04C298.529 171.522 291.969 187.322 280.312 198.974C268.656 210.626 252.854 217.18 236.372 217.198ZM170.374 90.5279V155.063C170.38 170.682 176.585 185.659 187.627 196.705C198.669 207.751 213.644 213.963 229.262 213.975H236.372C251.975 213.957 266.934 207.752 277.968 196.722C289.003 185.691 295.214 170.735 295.238 155.132V86.9617L266.799 85.0871C266.516 85.0693 266.243 84.9777 266.006 84.8213C265.769 84.6648 265.578 84.4491 265.451 84.1956L249.906 55.0484C250.637 64.1926 251.3 78.4347 249.425 86.5731C249.353 86.904 249.18 87.2046 248.931 87.4337C248.681 87.6628 248.367 87.8093 248.031 87.8533L221.01 91.4195C220.615 91.4778 220.213 91.3889 219.88 91.1696C219.547 90.9504 219.306 90.6161 219.204 90.2307L211.751 63.5754L208.436 85.9558C208.382 86.3239 208.207 86.6633 207.937 86.9201C207.668 87.1769 207.321 87.3364 206.951 87.3732L170.374 90.5279Z" fill="#202020"/>
</svg>
