<?xml version="1.0" encoding="UTF-8"?>
<svg id="a" data-name="Calque 1" xmlns="http://www.w3.org/2000/svg" viewBox="0 0 295.59 324.25">
  <defs>
    <style>
      .b {
        fill: #dabb56;
      }

      .c {
        fill: #212b53;
      }
    </style>
  </defs>
  <path class="b" d="M163.36,60.65c28.97,5.23,44.24,31.85,46.34,59.96l1.28,1.09c.94-1.88,1.47-3.79,1.68-5.9,1.3-12.97-.12-26.34-.39-39.31-.11-5.13.67-12.12.04-16.92-.13-.99-.28-1.05-.86-1.73-.33-.38-3.62-3.08-3.92-2.78,1.3,5.08-.46,10.39,0,15.58-1.42,1.42-13.5-5.56-15.72-6.57-17.09-7.72-36.41-13.89-55.35-11.06-24.39,3.65-53.32,18.35-55.31,45.96-2.67,37.12,26.68,46.96,55.62,56.93,14.18,4.89,29.9,8.56,43.08,15.78,17.65,9.68,24.35,29.72,13.06,47.26-6.97,10.83-17.41,16.92-29.77,20.02l.26,5.65c9.96-2.74,19.96-5.81,28.99-10.82,3.54-2.35,10.42-7.61,15.47-16.92,4.89-9.01,5.64-17.36,5.74-21.59.8-19.2-12.83-31.58-29.13-38.59-19.25-8.27-40.28-13.1-59.57-20.92-16.78-8.54-29.33-22.82-28.94-36.85.56-20.38,28.75-45.24,67.43-38.26Z"/>
  <path class="b" d="M124.01,28.21c-18.45,3.93-36.2,11.92-50.84,23.82-19.04,15.48-38.08,42.58-41.28,67.34-1.23,9.51.32,20.45,10.78,23.72,7.18,2.25,18.42-3.71,16.22-11.9-.67-2.48-4.11-4.22-4.13-4.94-.04-1.73,1.65-3.47,3.57-3.18,3.73.57,6.68,6.14,6.84,9.64.84,18.49-30.72,25.52-37.55,2.05-8.4-28.85,17.89-67.53,39.05-85.34,11.73-9.87,35.43-24.07,50.75-25.43,3.45-.31,4.47,1.89,6.58,4.21Z"/>
  <path class="b" d="M165.55,269.27c6.46-.93,13.16-2.66,19.37-4.65,21.46-6.87,38.14-18.05,52.69-35.16,10.52-12.37,29.82-43.44,22.06-59.72-5.14-10.77-22.95-11.12-23.81.84-.25,3.52,3.06,8.96-3.96,5.3-5.45-2.84-.35-12.77,2.9-15.88,8.45-8.07,22.43-5.15,28.48,4.4,10.46,16.53-3,43.68-12.81,58.01-18.01,26.3-42.51,42.91-73.48,50.72-1.77.45-6.77,1.84-8.23,1.74-1.17-.08-2.81-4.38-3.2-5.6Z"/>
  <path class="b" d="M73.38,261.91c3.97,2.99,9.16,4.28,12.29,8.26,5.5,6.98,7.53,12.89,15.87,17.89,21.07,12.62,36.89-2.83,38.48-24.21,1.28-17.26.39-38.58.46-56.24.05-14.11-.91-28.13-.01-42.21l4.76,1.94c.83.69.35,9.01.41,10.84.61,21.12.17,42.42,0,63.58-.15,17.95,3.29,41.58-14.64,52.44-16.48,9.97-33.41.62-44.85-11.95-5.32-5.85-10.44-12.71-12.76-20.35Z"/>
  <path class="b" d="M222.68,261.48c-7.31,15.01-20.17,33.53-37.93,36.29-21.23,3.29-34.45-15.65-33.91-35.22,1.31-29.13-1.75-59.78-.03-88.73.09-1.53.57-2.98.46-4.52,1.37.38,4.91.43,5.2,1.94-.08,21.79.08,43.58.02,65.37-.05,15.12-3.41,42.07,11.52,51.62,13.83,8.84,27.31,1.13,36.48-10.1,2.47-3.02,4.68-7.46,7.36-9.95,1.02-.94,10.19-7.23,10.82-6.7Z"/>
  <path class="c" d="M132.19,44.2c-43.11,6.66-79.62,43.07-84.78,86.59-1.31-.04-5.68-.29-6.3-1.3,5.28-46.74,43.7-85.15,90.01-91.69.97.23.83,5.2,1.08,6.41Z"/>
  <path class="b" d="M30.96,173.63c2.68,20.27,12.71,38.73,25.54,54.3,18.57,22.53,45.44,37.24,74.43,41.34l-1.52,5.63c-11.03-1.73-21.96-4.97-32.23-9.32-37.11-15.73-65.78-52.08-72.28-91.96h6.06Z"/>
  <path class="c" d="M252.1,173.19c-1.92,22.38-15.39,42.19-30.5,57.99-15.04,15.73-35.52,25.03-56.91,28.56l-.44-6.93c2.79.1,5.55-.78,8.22-1.51,24.87-6.87,41.42-19.37,56.67-39.83,8.61-11.56,15.74-24.47,16.9-39.15l6.06.87Z"/>
  <path class="b" d="M270.71,129.05l-6.06-.43c-3.95-41.46-33.71-78.16-71.85-93.68-6.7-2.73-13.3-3.78-19.89-6.08-.42-.14-.99-.05-.87-.63,3.01-.68,3.47-4.06,6.68-3.91,6.23.29,20.2,6.46,26.06,9.45,29.64,15.14,54.43,45.56,62.77,77.88,1.48,5.72,2.29,11.57,3.15,17.4Z"/>
  <path class="c" d="M282.83,135.54l.22,6.07c-.48.8-4.1,1.23-5.18,1.31-9.41.67-20.3-.07-29.9-.03-19.39.06-38.97.33-58.39,0-2.51-.04-25.11.37-25.36-1.1l.02-5.38,118.58-.87Z"/>
  <path class="b" d="M42,262.77c-.19.02-.6.59-1.08.43l.45-5.6,23.78-.45c.23,4.13-3.53,4.91-6.93,4.76-.56.54.47,13.3,1.36,14.87.63,1.1,1.59,1.13,2.1,2l-5.77.81-1.59-3.83c-6.79,3.05-11.96,5.37-19.48,3.25-23.68-6.65-19.08-44.63,8.83-41.72,2.14.22,14.1,4.24,13.51,6.46l-4.16,6.47c-.72.05-.39-.94-.84-1.53-10.33-13.59-33.27-.14-24.34,16.98,4.64,8.89,16.3,7.9,24.32,4.89v-7.79c-3.24.27-7.01-.37-10.17,0Z"/>
  <path class="c" d="M132.18,165.35c-5.82,0-11.67.15-17.5.07-1.13-.02-2.19-.46-3.42-.47-32.03-.4-67.16,2.09-98.7-.41-.65-.05-1.24.34-1.08-.65.05-.29,3.13-4.54,3.44-4.79,1.84-1.47,5-.19,7.15-.16,23.28.31,46.9-.69,70.11-.47,9.06.08,20.17-.36,29.01.46,1.48.14,10.04,2.3,10.85,3,1.15.99.36,2.19.14,3.44Z"/>
  <path class="b" d="M54.35,20.44h.62c3.35,3.07-3.48,6.58-2.81,10.37l-1.62-2.92c-3.24-4.05-9.1-5.53-14.13-4.83s-8.54,6.6-2.87,9.72c7.24,3.99,22.31,1.67,22.98,13.37.73,12.75-15.36,15-24.68,11.26-3.74-1.5-5.84-5.03-9.52-1.51-.69-4.42,3.18-7.19,3.9-11.25l2.37,3.47c4.36,3.96,11.99,6.1,17.54,3.67,3.85-1.69,6.14-6.24,1.47-8.39-7.32-3.37-24.4-1.33-23.98-14.09.4-12.38,15.25-14.19,24.54-10.27,1.84.77,5.77,4.24,6.22,1.39Z"/>
  <path class="b" d="M103.02,222.96c8.25,8,18.58,13.16,29.83,15.53l-.39,5.67c-5.15-1.52-10.4-2.64-15.48-4.43-7.09-2.5-16.06-8.19-22.74-9.72-2.52-.57-3.82-1.25-5.48,1.19-.22.32-1.1,2.19-1.1,2.36v9.74c-6.18-2.89-3.56-8.65-4.78-14.05,1.1-15.55-2.11-32.7.5-48,.27-1.58.87-3.06,1.25-4.6.88-.87,1.11,1.67,1.17,2.07.72,4.95,1.2,9.96,1.98,14.9.31,4.1,1.45,11.72,6.43,19.51,2.91,4.55,6.22,7.74,8.8,9.83Z"/>
  <path class="c" d="M169.44,119.32c8.67,9.19,21.85,2.95,25.87-7.47,6.09-15.79-6.69-27.93-19.49-33.73-1.11-.5-10.8-4.5-12-4.07v7.12c3.61-.61,6.84,3.28,10.24,3.57-.96.61-9.98,6.6-10.66,17.86-.56,9.31,4.98,15.58,6.03,16.72ZM189.99,108.7c-3.41,9.96-15.95,11.44-19.7.67-2.62-7.53.33-10.88,4.62-16.41,0,0,3.53-4.57,5.42-4.59s4.01,3.28,5.12,4.56c3.87,4.45,6.59,9.8,4.55,15.78Z"/>
  <path class="c" d="M132.23,73.66v7.57c-15.88,7.8-22.51,26.27-7.56,39.15,2.16,1.86,4.65,3.76,7.5,4.4l.49,6c-10.63-3.77-18.98-8.95-23.14-19.91-6.32-16.66,6.76-33.39,22.71-37.21Z"/>
  <path class="c" d="M164.26,227.29l.87-7.02c9.52-5.81,17.2-14.96,13.29-26.83-1.22-3.71-5.55-8.84-8.53-11.38-3.13-2.66-7.68-3.41-4.97-8.87,3.62,1.82,7.04,2.74,10.3,5.28,20.32,15.78,13.3,43.42-10.96,48.83Z"/>
  <path class="c" d="M253.83,128.62h-6.49c-1.79-14.08-6.59-27.25-14.44-39.01-1.58-2.37-11.52-14.51-11.52-15.74v-8.44c17.6,16.67,29.3,39.01,32.46,63.18Z"/>
  <path class="c" d="M75.54,232.48c-4.8-4.22-9.45-9.43-13.4-14.51-9.98-12.82-17.78-28.08-19.92-44.35,1.4.24,5.49-.52,6.28.43.52.62,3.33,12.05,4.21,14.4,3.22,8.54,9.78,20.16,15.89,26.95,1.56,1.73,6.94,5.85,6.94,7.78v9.3Z"/>
  <path class="b" d="M156.47,67.16l-.44,71.84c-.96-1.57-3.93-1.68-4.76-2.37-1.23-1.02-.02-8.5.02-10.38.42-18.33-1.63-37.63-.47-55.86.08-1.25.38-2.42.46-3.66l5.19.43Z"/>
  <polygon class="b" points="145.64 66.3 145.42 134.25 139.99 132.7 140.01 66.96 145.64 66.3"/>
  <path class="c" d="M204.71,60.21c-11.73-6.72-26.38-14.12-40.03-15.12v-6.28c.4-1.27,4.52-.23,5.64-.02,6.12,1.15,13.34,3.64,19.14,5.96,3.17,1.27,12.94,5.59,15.03,7.87l.21,7.58Z"/>
  <path class="c" d="M132.66,252.82v6.49c-2.79.19-5.52-.49-8.23-1.08-8.44-1.85-18.87-5.3-26.4-9.52-3.15-1.77-4.92-2.07-3.05-6.11l.25-3.22c11.7,6.65,24.01,11.51,37.43,13.42Z"/>
  <path class="b" d="M173.34,13.51c.09.94.07,1.56-.41,2.4-.89,1.57-6.19,5.18-7.81,6.9-5.79,6.16-8.17,14.48-9.09,22.72l-5.62-.43c.52-9.83,3.1-20.82,10.82-27.49,3.63-3.14,7.12-5.51,12.12-4.1Z"/>
  <path class="b" d="M135.97,18.85c5.73,6.23,9.64,17.04,9.48,25.41l-5,.84c-.84-5.2-1.83-11.14-4.25-15.88-3.58-6.98-10.39-9.73-14.79-15.93,2.86-.81,5.23-.98,8.01.21,1.57.67,5.31,4.01,6.55,5.35Z"/>
  <path class="b" d="M147.69,309.57c1.41-.21,5.31,4.6,5.98,5.98.31.64.67,1.19.63,1.94-.12,1.87-4.74,6.77-6.71,6.76-2.47,0-6.3-4.34-6.3-6.73,0-2.04,4.37-7.64,6.4-7.95Z"/>
  <polygon class="c" points="225.71 158.48 222.19 164.91 211.95 164.88 207.1 158.48 225.71 158.48"/>
  <path class="c" d="M82.41,135.6l1.8,3.61,3.88,3.25c-5.53,1.06-11.29.2-16.87,0,.6-2.22,2.51-4.01,2.16-6.49l9.03-.38Z"/>
  <path class="b" d="M148.03,290.11c2.67,2.91,9.26,5.67,3.82,9.37-1.38.94-2.99,1.55-4.69,1.39-1.42-.13-5.36-2.15-5.4-3.68-.05-2.06,4.57-5.92,6.27-7.08Z"/>
  <path class="c" d="M270.8,164.45l-3.11-6.41c3.8,1.11,7.92.08,11.81.09,1.13.4,4.76,5.54,4.64,6.18-.11.54-1.01.62-1.49.68-1.53.17-11.13.08-11.84-.54Z"/>
  <path class="c" d="M22.31,142.46l-10.38-.87c-.35-.34.61-5.07,1.07-5.63.7-.84,5.41-.43,6.72-.22l2.59,6.71Z"/>
  <path class="b" d="M269.21,266.22c-2.54-6.04-5.52-13.49-7.6-19.66-.93-2.73-3.87-8.39,1.31-8.03l-1.08-1.29c-5.1.02-10.32-1.16-15.36,0,.84,1.11,3.03,1.19,3.68,2.6.45.98.16,1.58-.08,2.51-.72,2.76-6.08,16.25-7.49,18.36-.28.42-1.14.55-1.24,1-.09.44.43,1.21.29,2.02-.5,2.86-4.2,11.37-6.45,13.07-1.18.89-3.35.91-3,2.84l13.62.43.48-.88-2.66-4.08,3.13-8.49c5.45.98,11.1.33,16.62.23.42.29,2.62,7.32,2.62,8.25-.01,2.17-1.6,2.33-2.45,4.09l.47.88c3.95-1.11,8.56.03,12.56-.41.65-.07,1.07-.04,1.48-.67-4.89-2.67-6.79-7.86-8.85-12.78ZM250.16,261.48c-.18-.03-1.39-.48-1.01-1l5.78-15.02c.88-.18.61.34.84.87,2.03,4.51,3.37,10.4,4.99,15.15-3.29-.34-7.43.46-10.6,0Z"/>
  <path class="c" d="M116.12,179.81c-20.54,2.19-21.75,30.8-3.36,38.17,13.37,5.36,20.47-6.25,21.19-18.17.59-9.83-7.15-21.13-17.83-20ZM123.76,209.08c-9.09,9.38-20.81-5.99-15.97-16.4,1.53-3.29,4.17-5.88,7.89-6.39,12.75-1.73,15.92,14.69,8.08,22.79Z"/>
  <path class="b" d="M271.78,52.04c-2.27-4.09-11.28-26.15-11.84-30.13-.58-4.08,1.62-2.52,3.42-5.37l-15.58-.44c-.79.68,4.51,3.25,3.39,4.86l-12.81,32.21c1.52,3.64,4.87,6.1,8.99,5.33.63-.55-2.12-2.5-2.37-3.03-1.12-2.44,1.76-6.87,1.94-9.52,4.98.85,10.52.47,15.6.19.99,2.63,3.31,6.03,2.33,8.89-.48,1.41-2.61,2.23-2.36,3.91,4.56-.96,9.63.08,14.08-.41.65-.07,1.07-.04,1.48-.67-2.96-1.75-4.56-2.72-6.28-5.82ZM249.94,40.77c-.97-.99,4.58-12.57,4.77-14.71.25-.2,1.01.82,1.19,1.18,1.91,3.76,2.46,9.33,4.86,13.09l-10.82.44Z"/>
  <circle class="c" cx="28.18" cy="222.58" r="5.95"/>
  <circle class="c" cx="41.79" cy="294.08" r="5.95"/>
  <circle class="b" cx="5.95" cy="151.23" r="5.95"/>
  <circle class="c" cx="28.69" cy="72.6" r="5.95"/>
  <circle class="c" cx="71.47" cy="28.69" r="5.95"/>
  <circle class="b" cx="147.9" cy="5.95" r="5.95"/>
  <circle class="c" cx="223.86" cy="29.24" r="5.95"/>
  <circle class="c" cx="266.58" cy="72.37" r="5.95"/>
  <circle class="b" cx="289.64" cy="151.21" r="5.95"/>
  <circle class="c" cx="267.05" cy="222.47" r="5.95"/>
  <circle class="c" cx="255.63" cy="294.06" r="5.95"/>
</svg>