<?xml version="1.0" encoding="UTF-8"?>
<svg id="b" data-name="Calque 2" xmlns="http://www.w3.org/2000/svg" viewBox="0 0 217.86 72.4">
  <defs>
    <style>
      .d {
        fill: #dabb56;
      }
    </style>
  </defs>
  <g id="c" data-name="Calque 1">
    <g>
      <path class="d" d="M29.22,16.44c1.12-1.51,1.68-2.95,1.68-4.3s-.28-2.43-.84-3.22c-.56-.79-1.32-1.46-2.27-2-1.98-1.1-4.54-1.65-7.69-1.65-2.86,0-5.22.77-7.1,2.31-1.88,1.56-2.82,3.59-2.82,6.08,0,2.81,1.22,5.21,3.66,7.21,1.22,1,2.72,1.99,4.5,2.97,6.64,3.44,10.94,5.71,12.89,6.79,1.95,1.09,3.7,2.29,5.24,3.61,3.32,2.81,4.98,5.96,4.98,9.45,0,5.25-2.03,9.2-6.08,11.87-3.59,2.34-8.47,3.52-14.65,3.52-4.83,0-9.36-1.05-13.59-3.15-2.93-1.46-5-3.3-6.23-5.49-.61-1.12-.92-2.37-.92-3.74s.3-2.58.9-3.64c.6-1.06,1.34-1.97,2.22-2.73,1.64-1.44,3.42-2.34,5.35-2.71l1.98,2.34c-.9,1.25-1.42,2.29-1.56,3.13-.13.84-.2,1.78-.2,2.82s.33,2.14.99,3.31,1.55,2.21,2.67,3.11c2.49,1.98,5.43,2.97,8.83,2.97,5.88,0,9.7-1.87,11.46-5.6.56-1.2.84-2.61.84-4.25s-.45-3.07-1.34-4.3c-.89-1.23-2.04-2.33-3.44-3.3-1.4-.96-2.98-1.86-4.74-2.67-1.76-.82-3.74-1.8-5.95-2.95-2.21-1.15-4.31-2.37-6.3-3.68-1.99-1.31-3.63-2.63-4.93-3.97-2.56-2.69-3.85-5.76-3.85-9.23,0-4.27,1.76-7.69,5.27-10.25,3.37-2.47,7.68-3.7,12.93-3.7,4.86,0,8.94.79,12.23,2.38,3.47,1.66,5.2,3.86,5.2,6.59,0,2.59-1.17,4.72-3.52,6.41-.83.61-1.87,1.1-3.11,1.46l-2.71-1.79Z"/>
      <path class="d" d="M46.62,55.15c2.78-.49,4.36-.91,4.74-1.26s.58-.78.6-1.28c.02-.5.04-1.2.04-2.11l-.04-3.77v-1.98c0-12.91,1.64-22.52,4.91-28.82,2.07-4.05,5.19-7.74,9.34-11.06,2-1.59,4.25-3.21,6.74-4.87h.04c5.44,3.64,9.45,6.99,12.01,10.07,3.1,3.69,5.32,8.13,6.67,13.33,1.37,5.32,2.05,12.41,2.05,21.28v2.05l-.04,3.7c0,.93.04,1.65.11,2.16s.29.92.66,1.21c.46.42,2.12.87,4.98,1.35v3.04h-20.1v-3.04c3.2-.37,5.11-.89,5.75-1.57.51-.56.8-1.4.86-2.53.06-1.12.09-2.21.09-3.26v-8.86h-26.33v8.86c0,1.59.04,2.83.13,3.72.08.89.35,1.58.79,2.05.44.48,1.11.81,2.01,1.01.9.2,2.17.39,3.81.59v3.04h-19.81v-3.04ZM85.95,34.83c-.05-6.3-.93-11.5-2.64-15.6-1.81-4.32-5.26-9.01-10.36-14.06-3.44,3.44-5.85,6.27-7.23,8.48-1.38,2.21-2.39,4.07-3.02,5.58-.64,1.51-1.16,3.09-1.57,4.72-.68,2.88-1.14,6.51-1.35,10.88h26.18Z"/>
      <path class="d" d="M148.28,56.07c-4.1,2.05-9.04,3.08-14.83,3.08-9.13,0-16.32-2.98-21.57-8.94-4.83-5.52-7.25-12.15-7.25-19.89s2.4-14.47,7.21-19.89c5.32-6.03,12.65-9.05,21.97-9.05,3.05,0,5.92.4,8.61,1.21l2.09.62c2.32.73,4.09,1.1,5.31,1.1s2.58-1,4.07-3h3.48l-4.87,18.68h-3.48l.15-2.09c.02-.61.04-1.22.04-1.83,0-3.03-.89-5.27-2.67-6.74-2.03-1.71-4.72-2.88-8.09-3.52-1.59-.32-3.43-.48-5.53-.48s-4.19.35-6.26,1.04c-2.08.7-3.88,1.64-5.4,2.84-1.53,1.2-2.79,2.61-3.79,4.23-1,1.62-1.81,3.35-2.42,5.18-1.1,3.32-1.65,7.21-1.65,11.68,0,6.35,1.51,11.8,4.54,16.37,3.54,5.35,8.67,8.02,15.4,8.02s11.64-1.4,14.74-4.21l-.44-10.69c-.1-2.76-.71-4.49-1.83-5.2-.93-.61-3.33-1.05-7.21-1.32v-3.11h20.8v3.11c-.73.15-1.35.29-1.85.44s-.9.43-1.19.84c-.56.76-.89,2.5-.99,5.24l-1.58,32.59h-4.58l-.92-16.33Z"/>
      <path class="d" d="M165.05,55.15c2.78-.49,4.36-.91,4.74-1.26s.58-.78.6-1.28c.02-.5.04-1.2.04-2.11l-.04-3.77v-1.98c0-12.91,1.64-22.52,4.91-28.82,2.08-4.05,5.19-7.74,9.34-11.06,2-1.59,4.25-3.21,6.74-4.87h.04c5.44,3.64,9.45,6.99,12.01,10.07,3.1,3.69,5.32,8.13,6.67,13.33,1.37,5.32,2.05,12.41,2.05,21.28v2.05l-.04,3.7c0,.93.04,1.65.11,2.16s.29.92.66,1.21c.46.42,2.12.87,4.98,1.35v3.04h-20.11v-3.04c3.2-.37,5.12-.89,5.75-1.57.51-.56.8-1.4.86-2.53.06-1.12.09-2.21.09-3.26v-8.86h-26.33v8.86c0,1.59.04,2.83.13,3.72.08.89.35,1.58.79,2.05.44.48,1.11.81,2.01,1.01.9.2,2.17.39,3.81.59v3.04h-19.81v-3.04ZM204.38,34.83c-.05-6.3-.93-11.5-2.64-15.6-1.81-4.32-5.26-9.01-10.36-14.06-3.44,3.44-5.85,6.27-7.23,8.48-1.38,2.21-2.39,4.07-3.02,5.58-.64,1.51-1.16,3.09-1.58,4.72-.68,2.88-1.14,6.51-1.35,10.88h26.18Z"/>
    </g>
  </g>
</svg>